<?xml version="1.0" encoding="UTF-8" standalone="no"?>
<!DOCTYPE svg PUBLIC "-//W3C//DTD SVG 1.1//EN" "http://www.w3.org/Graphics/SVG/1.1/DTD/svg11.dtd">
<svg version="1.1" xmlns="http://www.w3.org/2000/svg" xmlns:xlink="http://www.w3.org/1999/xlink" preserveAspectRatio="xMidYMid meet" viewBox="37.224137931034505 176.77586206896558 575.5517241379308 286.00000000000006" width="300" height="200"><defs><path d="M136 229C186.1 229 226.78 269.68 226.78 319.78C226.78 369.88 186.1 410.55 136 410.55C85.9 410.55 45.22 369.88 45.22 319.78C45.22 269.68 85.9 229 136 229Z" id="k5tJULcrj3"></path><path d="M604.78 225.28L469.78 319.78" id="ehcXaf7Zf"></path><path d="M267.28 454.78L334.78 319.78" id="hcBC1VMqE"></path><path d="M267.28 184.78L334.78 319.78" id="aNjahBgiU"></path><path d="M469.78 319.78L226.78 319.78" id="a198dvD4Wn"></path><path d="M604.78 414.28L469.78 319.78" id="hoR26fwHg"></path><path d="M166.03 286.03C166.03 282.3 169.05 279.28 172.78 279.28C174.13 279.28 172.88 279.28 174.59 279.28C177.32 279.28 179.53 281.48 179.53 284.21C179.53 299.42 179.53 338.68 179.53 353.53C179.53 357.25 176.5 360.28 172.78 360.28C171.43 360.28 174.13 360.28 172.78 360.28C169.05 360.28 166.03 357.25 166.03 353.53C166.03 338.68 166.03 300.88 166.03 286.03Z" id="c35nPrKEz6"></path><path d="M114.78 333.28C124.44 333.28 132.28 341.12 132.28 350.77C132.28 360.43 124.44 368.27 114.78 368.27C105.12 368.27 97.28 360.43 97.28 350.77C97.28 341.12 105.12 333.28 114.78 333.28Z" id="ffp6nMTV4"></path><path d="M114.78 271.28C124.44 271.28 132.28 279.12 132.28 288.78C132.28 298.44 124.44 306.28 114.78 306.28C105.12 306.28 97.28 298.44 97.28 288.78C97.28 279.12 105.12 271.28 114.78 271.28Z" id="bJHkGOBoh"></path></defs><g><g><g><use xlink:href="#k5tJULcrj3" opacity="1" fill-opacity="0" stroke="#343d45" stroke-width="16" stroke-opacity="1"></use></g></g><g><use xlink:href="#ehcXaf7Zf" opacity="1" fill="#ffffff" fill-opacity="1"></use><g><use xlink:href="#ehcXaf7Zf" opacity="1" fill-opacity="0" stroke="#343d45" stroke-width="16" stroke-opacity="1"></use></g></g><g><use xlink:href="#hcBC1VMqE" opacity="1" fill="#ffffff" fill-opacity="1"></use><g><use xlink:href="#hcBC1VMqE" opacity="1" fill-opacity="0" stroke="#343d45" stroke-width="16" stroke-opacity="1"></use></g></g><g><use xlink:href="#aNjahBgiU" opacity="1" fill="#ffffff" fill-opacity="1"></use><g><use xlink:href="#aNjahBgiU" opacity="1" fill-opacity="0" stroke="#343d45" stroke-width="16" stroke-opacity="1"></use></g></g><g><g><use xlink:href="#a198dvD4Wn" opacity="1" fill-opacity="0" stroke="#343d45" stroke-width="16" stroke-opacity="1"></use></g></g><g><g><use xlink:href="#hoR26fwHg" opacity="1" fill-opacity="0" stroke="#343d45" stroke-width="16" stroke-opacity="1"></use></g></g><g><use xlink:href="#c35nPrKEz6" opacity="1" fill="#343d45" fill-opacity="1"></use></g><g><use xlink:href="#ffp6nMTV4" opacity="1" fill="#343d45" fill-opacity="1"></use></g><g><use xlink:href="#bJHkGOBoh" opacity="1" fill="#343d45" fill-opacity="1"></use></g></g></svg>